<?xml version="1.0" encoding="UTF-8" standalone="no"?>
<!-- Created with Inkscape (http://www.inkscape.org/) -->

<svg
   xmlns:dc="http://purl.org/dc/elements/1.1/"
   xmlns:cc="http://creativecommons.org/ns#"
   xmlns:rdf="http://www.w3.org/1999/02/22-rdf-syntax-ns#"
   xmlns:svg="http://www.w3.org/2000/svg"
   xmlns="http://www.w3.org/2000/svg"
   xmlns:sodipodi="http://sodipodi.sourceforge.net/DTD/sodipodi-0.dtd"
   xmlns:inkscape="http://www.inkscape.org/namespaces/inkscape"
   width="700"
   height="700"
   id="svg7936"
   version="1.1"
   inkscape:version="0.48.5 r10040"
   sodipodi:docname="hsclc_slogo.svg">
  <defs
     id="defs7938">
    <marker
       inkscape:stockid="Arrow1Send"
       orient="auto"
       refY="0"
       refX="0"
       id="Arrow1Send"
       style="overflow:visible">
      <path
         id="path8543"
         d="M 0,0 5,-5 -12.5,0 5,5 0,0 z"
         style="fill-rule:evenodd;stroke:#000000;stroke-width:1pt"
         transform="matrix(-0.2,0,0,-0.2,-1.2,0)"
         inkscape:connector-curvature="0" />
    </marker>
    <marker
       inkscape:stockid="Arrow1Lend"
       orient="auto"
       refY="0"
       refX="0"
       id="Arrow1Lend"
       style="overflow:visible">
      <path
         id="path8531"
         d="M 0,0 5,-5 -12.5,0 5,5 0,0 z"
         style="fill-rule:evenodd;stroke:#000000;stroke-width:1pt"
         transform="matrix(-0.8,0,0,-0.8,-10,0)"
         inkscape:connector-curvature="0" />
    </marker>
  </defs>
  <sodipodi:namedview
     id="base"
     pagecolor="#ffffff"
     bordercolor="#666666"
     borderopacity="1.0"
     inkscape:pageopacity="0.0"
     inkscape:pageshadow="2"
     inkscape:zoom="0.49497475"
     inkscape:cx="547.50867"
     inkscape:cy="427.15751"
     inkscape:document-units="px"
     inkscape:current-layer="g10834"
     showgrid="false"
     inkscape:window-width="1366"
     inkscape:window-height="705"
     inkscape:window-x="-8"
     inkscape:window-y="-8"
     inkscape:window-maximized="1" />
  <metadata
     id="metadata7941">
    <rdf:RDF>
      <cc:Work
         rdf:about="">
        <dc:format>image/svg+xml</dc:format>
        <dc:type
           rdf:resource="http://purl.org/dc/dcmitype/StillImage" />
        <dc:title />
      </cc:Work>
    </rdf:RDF>
  </metadata>
  <g
     inkscape:label="Layer 1"
     inkscape:groupmode="layer"
     id="layer1"
     transform="translate(0,-352.36218)">
    <g
       id="g10834"
       transform="translate(9.2243605,219.2857)">
      <text
         sodipodi:linespacing="125%"
         id="text7949"
         y="318.07648"
         x="145.71429"
         style="font-size:40px;font-style:normal;font-weight:normal;line-height:125%;letter-spacing:0px;word-spacing:0px;fill:#000000;fill-opacity:1;stroke:none;font-family:Sans"
         xml:space="preserve"><tspan
           style="font-size:64px;font-weight:bold;font-family:consolas;-inkscape-font-specification:consolas"
           y="318.07648"
           x="145.71429"
           id="tspan7951"
           sodipodi:role="line">H<tspan
   style="fill:#ffffff"
   id="tspan3005">ABCDEFG</tspan>S    </tspan><tspan
           style="font-size:64px;font-weight:bold;font-family:consolas;-inkscape-font-specification:consolas"
           id="tspan7953"
           y="398.07648"
           x="145.71429"
           sodipodi:role="line"><tspan
   style="fill:#ffffff"
   id="tspan3007">aaaaaa</tspan>C     </tspan><tspan
           style="font-size:64px;font-weight:bold;font-family:consolas;-inkscape-font-specification:consolas"
           id="tspan7955"
           y="478.07648"
           x="145.71429"
           sodipodi:role="line" /><tspan
           style="font-size:64px;font-weight:bold;font-family:consolas;-inkscape-font-specification:consolas"
           id="tspan7957"
           y="558.07648"
           x="145.71429"
           sodipodi:role="line"><tspan
   style="fill:#ffffff"
   id="tspan3009">aa</tspan>L </tspan><tspan
           style="font-size:64px;font-weight:bold;font-family:consolas;-inkscape-font-specification:consolas"
           id="tspan7959"
           y="638.07648"
           x="145.71429"
           sodipodi:role="line"><tspan
   style="fill:#ffffff"
   id="tspan3011">aaaaaaaaaa</tspan>C</tspan><tspan
           id="tspan7965"
           style="font-size:64px;font-weight:bold;font-family:consolas;-inkscape-font-specification:consolas"
           y="718.07648"
           x="145.71429"
           sodipodi:role="line"> </tspan><tspan
           style="font-size:64px;font-weight:bold;font-family:consolas;-inkscape-font-specification:consolas"
           id="tspan7961"
           y="798.07648"
           x="145.71429"
           sodipodi:role="line" /></text>
      <path
         transform="matrix(0.50325027,0,0,0.440344,83.056026,-106.59402)"
         d="m 248.57143,920.93359 c 0,56.80643 -40.29438,102.85711 -90,102.85711 -49.70563,0 -90.000004,-46.05068 -90.000004,-102.85711 0,-56.80643 40.294374,-102.85714 90.000004,-102.85714 49.70562,0 90,46.05071 90,102.85714 z"
         sodipodi:ry="102.85714"
         sodipodi:rx="90"
         sodipodi:cy="920.93359"
         sodipodi:cx="158.57143"
         id="path7967"
         style="fill:none;stroke:#000000;stroke-width:20;stroke-miterlimit:4;stroke-opacity:1;stroke-dasharray:none"
         sodipodi:type="arc" />
      <path
         transform="matrix(0.50325027,0,0,0.440344,363.91317,-107.45112)"
         d="m 248.57143,920.93359 c 0,56.80643 -40.29438,102.85711 -90,102.85711 -49.70563,0 -90.000004,-46.05068 -90.000004,-102.85711 0,-56.80643 40.294374,-102.85714 90.000004,-102.85714 49.70562,0 90,46.05071 90,102.85714 z"
         sodipodi:ry="102.85714"
         sodipodi:rx="90"
         sodipodi:cy="920.93359"
         sodipodi:cx="158.57143"
         id="path7967-5"
         style="fill:none;stroke:#000000;stroke-width:20;stroke-miterlimit:4;stroke-opacity:1;stroke-dasharray:none"
         sodipodi:type="arc" />
      <path
         transform="matrix(0.50325027,0,0,0.440344,295.34175,-28.308257)"
         d="m 248.57143,920.93359 c 0,56.80643 -40.29438,102.85711 -90,102.85711 -49.70563,0 -90.000004,-46.05068 -90.000004,-102.85711 0,-56.80643 40.294374,-102.85714 90.000004,-102.85714 49.70562,0 90,46.05071 90,102.85714 z"
         sodipodi:ry="102.85714"
         sodipodi:rx="90"
         sodipodi:cy="920.93359"
         sodipodi:cx="158.57143"
         id="path7967-2"
         style="fill:none;stroke:#000000;stroke-width:20;stroke-miterlimit:4;stroke-opacity:1;stroke-dasharray:none"
         sodipodi:type="arc" />
      <path
         transform="matrix(0.50325027,0,0,0.440344,151.91317,135.40603)"
         d="m 248.57143,920.93359 c 0,56.80643 -40.29438,102.85711 -90,102.85711 -49.70563,0 -90.000004,-46.05068 -90.000004,-102.85711 0,-56.80643 40.294374,-102.85714 90.000004,-102.85714 49.70562,0 90,46.05071 90,102.85714 z"
         sodipodi:ry="102.85714"
         sodipodi:rx="90"
         sodipodi:cy="920.93359"
         sodipodi:cx="158.57143"
         id="path7967-3"
         style="fill:none;stroke:#000000;stroke-width:20;stroke-miterlimit:4;stroke-opacity:1;stroke-dasharray:none"
         sodipodi:type="arc" />
      <path
         transform="matrix(0.50325027,0,0,0.440344,437.05603,211.40603)"
         d="m 248.57143,920.93359 c 0,56.80643 -40.29438,102.85711 -90,102.85711 -49.70563,0 -90.000004,-46.05068 -90.000004,-102.85711 0,-56.80643 40.294374,-102.85714 90.000004,-102.85714 49.70562,0 90,46.05071 90,102.85714 z"
         sodipodi:ry="102.85714"
         sodipodi:rx="90"
         sodipodi:cy="920.93359"
         sodipodi:cx="158.57143"
         id="path7967-1"
         style="fill:none;stroke:#000000;stroke-width:20;stroke-miterlimit:4;stroke-opacity:1;stroke-dasharray:none"
         sodipodi:type="arc" />
      <path
         inkscape:connector-curvature="0"
         id="path8014"
         d="m 231.2981,293.63551 139.40498,0"
         style="fill:none;stroke:#000000;stroke-width:5;stroke-linecap:butt;stroke-linejoin:miter;stroke-miterlimit:4;stroke-opacity:1;stroke-dasharray:none;marker-end:url(#Arrow1Send)" />
      <path
         sodipodi:nodetypes="cc"
         inkscape:connector-curvature="0"
         id="path9712"
         d="m 478.91383,351.27571 c 53.58143,88.22338 -40.98425,64.8362 -44.44671,64.64976"
         style="fill:none;stroke:#000000;stroke-width:5;stroke-linecap:butt;stroke-linejoin:miter;stroke-miterlimit:4;stroke-opacity:1;stroke-dasharray:none;marker-end:url(#Arrow1Send)" />
      <path
         inkscape:connector-curvature="0"
         id="path10088"
         d="m 333.92356,427.32755 c -49.66939,74.76252 -49.66939,74.76252 -49.66939,74.76252"
         style="fill:none;stroke:#000000;stroke-width:4.35745096;stroke-linecap:butt;stroke-linejoin:miter;stroke-miterlimit:4;stroke-opacity:1;stroke-dasharray:none;marker-end:url(#Arrow1Send)" />
      <path
         inkscape:connector-curvature="0"
         id="path10276"
         d="m 254.19147,605.09581 c 90.34655,127.52605 214.57305,75.11809 214.57305,75.11809"
         style="fill:none;stroke:#000000;stroke-width:4.48772526;stroke-linecap:butt;stroke-linejoin:miter;stroke-miterlimit:4;stroke-opacity:1;stroke-dasharray:none;marker-mid:none;marker-end:url(#Arrow1Send)" />
    </g>
    <rect
       style="fill:none;stroke:#000000;stroke-width:19.40298462;stroke-miterlimit:4;stroke-opacity:1;stroke-dasharray:none"
       id="rect10832"
       width="630.59698"
       height="630.59698"
       x="34.701492"
       y="387.06369" />
  </g>
</svg>
