<?xml version="1.0" encoding="UTF-8" standalone="no"?>
<!-- Created with Inkscape (http://www.inkscape.org/) -->

<svg
   xmlns:dc="http://purl.org/dc/elements/1.1/"
   xmlns:cc="http://creativecommons.org/ns#"
   xmlns:rdf="http://www.w3.org/1999/02/22-rdf-syntax-ns#"
   xmlns:svg="http://www.w3.org/2000/svg"
   xmlns="http://www.w3.org/2000/svg"
   xmlns:sodipodi="http://sodipodi.sourceforge.net/DTD/sodipodi-0.dtd"
   xmlns:inkscape="http://www.inkscape.org/namespaces/inkscape"
   width="700"
   height="700"
   id="svg5453"
   version="1.1"
   inkscape:version="0.48.5 r10040"
   sodipodi:docname="hsclc_logo.svg">
  <defs
     id="defs5455" />
  <sodipodi:namedview
     id="base"
     pagecolor="#ffffff"
     bordercolor="#666666"
     borderopacity="1.0"
     inkscape:pageopacity="0.0"
     inkscape:pageshadow="2"
     inkscape:zoom="0.35"
     inkscape:cx="885.95981"
     inkscape:cy="520"
     inkscape:document-units="px"
     inkscape:current-layer="text2992"
     showgrid="false"
     inkscape:window-width="785"
     inkscape:window-height="576"
     inkscape:window-x="185"
     inkscape:window-y="43"
     inkscape:window-maximized="0" />
  <metadata
     id="metadata5458">
    <rdf:RDF>
      <cc:Work
         rdf:about="">
        <dc:format>image/svg+xml</dc:format>
        <dc:type
           rdf:resource="http://purl.org/dc/dcmitype/StillImage" />
        <dc:title />
      </cc:Work>
    </rdf:RDF>
  </metadata>
  <g
     inkscape:label="Layer 1"
     inkscape:groupmode="layer"
     id="layer1"
     transform="translate(0,-352.36218)">
    <g
       id="g7061"
       transform="translate(-150.00001,150)">
      <g
         id="g2991">
        <rect
           style="fill:none;stroke:#000000;stroke-width:19.78358841;stroke-miterlimit:4;stroke-opacity:1;stroke-dasharray:none"
           id="rect6535"
           width="630.21643"
           height="630.21643"
           x="184.8918"
           y="237.25395" />
        <g
           style="font-size:36.88760757px;font-style:normal;font-weight:normal;line-height:125%;letter-spacing:0px;word-spacing:0px;fill:#000000;fill-opacity:1;stroke:none;font-family:Sans"
           id="text2992">
          <path
             d="m 312.50721,386.74277 0,-16.3977 -12.79539,0 0,16.3977 -7.08933,0 0,-37.66571 7.08933,0 0,15.12968 12.79539,0 0,-15.12968 7.08934,0 0,37.66571 z"
             style="font-size:59.02017212px;font-weight:bold;font-family:consolas;-inkscape-font-specification:consolas"
             id="path2993" />
          <path
             d="m 359.22191,354.86957 0,-5.79251 23.80404,0 0,5.79251 -8.29971,0 0,26.02305 8.29971,0 0,5.85015 -23.80404,0 0,-5.85015 8.29972,0 0,-26.02305 z"
             style="font-size:59.02017212px;font-weight:bold;font-family:consolas;-inkscape-font-specification:consolas"
             id="path2995" />
          <path
             d="m 436.31125,370.80617 0,-5.85015 13.40058,0 0,20.08646 c -1.72914,0.80692 -3.53509,1.4025 -5.41787,1.78674 -1.88283,0.38425 -3.92893,0.57637 -6.13833,0.57637 -2.61288,0 -4.96158,-0.40346 -7.04611,-1.21037 -2.08454,-0.80692 -3.85687,-2.00769 -5.317,-3.60231 -1.46014,-1.59461 -2.57925,-3.57348 -3.35735,-5.9366 -0.7781,-2.3631 -1.16715,-5.10085 -1.16714,-8.21325 -1e-5,-3.13159 0.40826,-5.93658 1.22478,-8.41499 0.81652,-2.47836 2.00768,-4.5773 3.57349,-6.29683 1.56579,-1.71947 3.48702,-3.0307 5.76369,-3.93372 2.27664,-0.90294 4.8751,-1.35443 7.79538,-1.35446 1.72909,3e-5 3.41497,0.14893 5.05764,0.44668 1.64263,0.29783 3.28047,0.69648 4.91355,1.19597 l 0,7.00288 c -1.42174,-0.6724 -2.99235,-1.22475 -4.71182,-1.65706 -1.71952,-0.43225 -3.45343,-0.64838 -5.20173,-0.64842 -1.76755,4e-5 -3.32855,0.30743 -4.683,0.92219 -1.35448,0.61483 -2.488,1.48899 -3.40057,2.62248 -0.9126,1.13355 -1.60424,2.52644 -2.07493,4.17868 -0.47071,1.65228 -0.70606,3.51587 -0.70605,5.59077 -1e-5,1.9981 0.18251,3.79925 0.54755,5.40346 0.36502,1.60424 0.9558,2.96831 1.77233,4.09222 0.81651,1.12393 1.86839,1.98368 3.15562,2.57925 1.28721,0.59559 2.85301,0.89338 4.69741,0.89337 0.44186,10e-6 0.82611,-0.0144 1.15274,-0.0432 0.32658,-0.0288 0.63398,-0.072 0.92219,-0.12969 0.28816,-0.0576 0.56193,-0.12487 0.82132,-0.20173 0.25935,-0.0768 0.53312,-0.16329 0.82133,-0.25936 l 0,-9.62536 z"
             style="font-size:59.02017212px;font-weight:bold;font-family:consolas;-inkscape-font-specification:consolas"
             id="path2997" />
          <path
             d="m 507.55046,386.74277 0,-16.3977 -12.79539,0 0,16.3977 -7.08934,0 0,-37.66571 7.08934,0 0,15.12968 12.79539,0 0,-15.12968 7.08933,0 0,37.66571 z"
             style="font-size:59.02017212px;font-weight:bold;font-family:consolas;-inkscape-font-specification:consolas"
             id="path2999" />
          <path
             d="m 579.3372,375.35948 c -3e-5,2.05573 -0.37948,3.84247 -1.13833,5.36023 -0.75892,1.51778 -1.82039,2.77138 -3.18444,3.76081 -1.3641,0.98943 -2.98754,1.7243 -4.87032,2.20461 -1.88282,0.48031 -3.93854,0.72046 -6.16715,0.72046 -1.97887,0 -3.8905,-0.11527 -5.73487,-0.34582 -1.84438,-0.23055 -3.66955,-0.61479 -5.4755,-1.15274 l 0,-7.00288 c 0.88376,0.3074 1.80595,0.59559 2.76657,0.86455 0.96061,0.26898 1.92603,0.50433 2.89625,0.70606 0.97022,0.20173 1.93563,0.36023 2.89626,0.4755 0.9606,0.11528 1.8924,0.17292 2.79539,0.17291 1.34484,10e-6 2.48797,-0.11527 3.42939,-0.34582 0.94139,-0.23054 1.70988,-0.54754 2.30548,-0.95101 0.59556,-0.40345 1.02783,-0.88376 1.29683,-1.44092 0.26895,-0.55715 0.40343,-1.17194 0.40346,-1.84438 -3e-5,-0.92218 -0.2642,-1.69547 -0.79251,-2.31989 -0.52836,-0.62438 -1.22481,-1.17674 -2.08934,-1.65706 -0.86457,-0.48029 -1.8492,-0.91257 -2.95389,-1.29683 -1.10472,-0.38423 -2.22864,-0.79729 -3.37176,-1.23919 -1.14314,-0.44187 -2.26706,-0.94138 -3.37176,-1.49856 -1.10471,-0.55714 -2.08934,-1.24878 -2.95389,-2.07493 -0.86455,-0.8261 -1.561,-1.81073 -2.08933,-2.95389 -0.52834,-1.1431 -0.79251,-2.52159 -0.79251,-4.13544 0,-1.47932 0.26897,-2.88182 0.80692,-4.2075 0.53794,-1.32561 1.38328,-2.48315 2.53602,-3.47262 1.15273,-0.9894 2.63207,-1.7771 4.43804,-2.36311 1.80594,-0.58594 3.98654,-0.87893 6.54179,-0.87896 0.74926,3e-5 1.53216,0.0337 2.3487,0.10086 0.8165,0.0673 1.62342,0.15374 2.42075,0.25937 0.79729,0.1057 1.56578,0.23058 2.30547,0.37464 0.73965,0.14413 1.41689,0.29302 2.0317,0.44668 l 0,6.48415 c -0.61481,-0.23051 -1.28724,-0.44185 -2.01729,-0.634 -0.73009,-0.1921 -1.48417,-0.3602 -2.26224,-0.50433 -0.77812,-0.14406 -1.56102,-0.25453 -2.34871,-0.33141 -0.78772,-0.0768 -1.537,-0.11524 -2.24784,-0.11527 -1.24881,3e-5 -2.30549,0.10089 -3.17002,0.30259 -0.86457,0.20176 -1.57543,0.48034 -2.13257,0.83574 -0.55717,0.35545 -0.96063,0.79253 -1.21037,1.31124 -0.24978,0.51876 -0.37465,1.09512 -0.37464,1.7291 -1e-5,0.78773 0.26415,1.46497 0.7925,2.0317 0.52833,0.56679 1.22958,1.07592 2.10375,1.52738 0.87414,0.45151 1.86358,0.87418 2.9683,1.26801 1.10469,0.39388 2.23821,0.81655 3.40058,1.26801 1.16232,0.45151 2.29584,0.96544 3.40057,1.54179 1.10468,0.57639 2.09412,1.27764 2.9683,2.10375 0.87413,0.82614 1.57538,1.80116 2.10375,2.92507 0.52831,1.12393 0.79248,2.45438 0.79251,3.99135 z"
             style="font-size:59.02017212px;font-weight:bold;font-family:consolas;-inkscape-font-specification:consolas"
             id="path3001" />
          <path
             d="m 643.8905,385.27303 c -1.67149,0.67243 -3.29013,1.17195 -4.8559,1.49856 -1.56583,0.3266 -3.19407,0.48991 -4.88473,0.48991 -2.70895,0 -5.10568,-0.39866 -7.1902,-1.19597 -2.08455,-0.7973 -3.84247,-1.98366 -5.27378,-3.55907 -1.43132,-1.57541 -2.51681,-3.53026 -3.25648,-5.86456 -0.73968,-2.33428 -1.10951,-5.04801 -1.10951,-8.14121 0,-3.17 0.40345,-5.98941 1.21037,-8.45821 0.80692,-2.46875 1.95965,-4.55328 3.45822,-6.2536 1.49855,-1.70026 3.31891,-2.99708 5.46109,-3.89049 2.14216,-0.89334 4.5485,-1.34002 7.21902,-1.34006 0.86454,4e-5 1.67625,0.0192 2.43516,0.0576 0.75886,0.0385 1.50334,0.11051 2.23343,0.21614 0.73004,0.1057 1.46972,0.24499 2.21902,0.41786 0.74925,0.17295 1.52735,0.39389 2.33429,0.66283 l 0,7.0317 c -1.63307,-0.76846 -3.18926,-1.31601 -4.66858,-1.64265 -1.47937,-0.32658 -2.82423,-0.48989 -4.03459,-0.48992 -1.78676,3e-5 -3.31413,0.32184 -4.58213,0.96542 -1.26802,0.64364 -2.31029,1.54662 -3.1268,2.70893 -0.81653,1.16237 -1.41692,2.54566 -1.80115,4.14986 -0.38426,1.60425 -0.57638,3.36697 -0.57637,5.28818 -10e-6,2.03652 0.19691,3.85689 0.59078,5.4611 0.39384,1.60424 1.00383,2.96351 1.82997,4.07781 0.82611,1.11432 1.88279,1.96446 3.17003,2.55043 1.2872,0.58598 2.81458,0.87897 4.58213,0.87896 0.63398,10e-6 1.32082,-0.0624 2.06052,-0.18732 0.73965,-0.12487 1.48893,-0.28817 2.24784,-0.48991 0.75886,-0.20172 1.50814,-0.44188 2.24784,-0.72046 0.73964,-0.27857 1.42648,-0.56195 2.06051,-0.85015 z"
             style="font-size:59.02017212px;font-weight:bold;font-family:consolas;-inkscape-font-specification:consolas"
             id="path3003" />
          <path
             d="m 702.5937,386.74277 0,-16.3977 -12.79539,0 0,16.3977 -7.08934,0 0,-37.66571 7.08934,0 0,15.12968 12.79539,0 0,-15.12968 7.08934,0 0,37.66571 z"
             style="font-size:59.02017212px;font-weight:bold;font-family:consolas;-inkscape-font-specification:consolas"
             id="path3005" />
          <path
             d="m 321.26802,441.52663 c -3e-5,3.4198 -0.39869,6.36889 -1.19597,8.84726 -0.79734,2.47839 -1.89243,4.5149 -3.2853,6.10951 -1.39291,1.59462 -3.02596,2.77618 -4.89913,3.54467 -1.87322,0.76849 -3.8761,1.15274 -6.00865,1.15274 -4.95678,0 -8.68396,-1.64746 -11.18155,-4.94237 -2.49761,-3.2949 -3.7464,-8.08356 -3.7464,-14.36599 0,-3.41977 0.39865,-6.36885 1.19596,-8.84726 0.79731,-2.47836 1.89241,-4.51486 3.28531,-6.10951 1.39288,-1.59459 3.02592,-2.77614 4.89913,-3.54467 1.87319,-0.76845 3.87607,-1.1527 6.00865,-1.15274 4.95675,4e-5 8.68393,1.64269 11.18155,4.92796 2.49757,3.28533 3.74637,8.07879 3.7464,14.3804 z m -7.4928,0.34582 c -2e-5,-4.45723 -0.5956,-7.78095 -1.78674,-9.97118 -1.19118,-2.19017 -3.15083,-3.28527 -5.87896,-3.2853 -1.36409,3e-5 -2.52643,0.28341 -3.48703,0.85014 -0.96063,0.56679 -1.75314,1.39772 -2.37752,2.4928 -0.62441,1.09512 -1.08071,2.44479 -1.36888,4.04899 -0.28819,1.60425 -0.43229,3.44382 -0.43228,5.51873 -10e-6,4.45727 0.60038,7.78099 1.80116,9.97118 1.20075,2.19021 3.1556,3.28531 5.86455,3.2853 1.36405,10e-6 2.5312,-0.28337 3.50144,-0.85014 0.9702,-0.56676 1.76271,-1.39769 2.37752,-2.4928 0.61477,-1.09509 1.06626,-2.44475 1.35447,-4.04899 0.28816,-1.60421 0.43225,-3.44379 0.43227,-5.51873 z"
             style="font-size:59.02017212px;font-weight:bold;font-family:consolas;-inkscape-font-specification:consolas"
             id="path3007" />
          <path
             d="m 386.28243,441.52663 c -3e-5,3.4198 -0.39868,6.36889 -1.19596,8.84726 -0.79734,2.47839 -1.89244,4.5149 -3.28531,6.10951 -1.39291,1.59462 -3.02596,2.77618 -4.89913,3.54467 -1.87322,0.76849 -3.8761,1.15274 -6.00865,1.15274 -4.95678,0 -8.68396,-1.64746 -11.18155,-4.94237 -2.4976,-3.2949 -3.7464,-8.08356 -3.7464,-14.36599 0,-3.41977 0.39865,-6.36885 1.19596,-8.84726 0.79731,-2.47836 1.89241,-4.51486 3.28531,-6.10951 1.39288,-1.59459 3.02593,-2.77614 4.89913,-3.54467 1.87319,-0.76845 3.87607,-1.1527 6.00865,-1.15274 4.95675,4e-5 8.68393,1.64269 11.18155,4.92796 2.49757,3.28533 3.74637,8.07879 3.7464,14.3804 z m -7.49279,0.34582 c -3e-5,-4.45723 -0.59561,-7.78095 -1.78675,-9.97118 -1.19118,-2.19017 -3.15083,-3.28527 -5.87896,-3.2853 -1.36409,3e-5 -2.52643,0.28341 -3.48703,0.85014 -0.96063,0.56679 -1.75313,1.39772 -2.37752,2.4928 -0.62441,1.09512 -1.0807,2.44479 -1.36888,4.04899 -0.28819,1.60425 -0.43228,3.44382 -0.43228,5.51873 0,4.45727 0.60038,7.78099 1.80116,9.97118 1.20075,2.19021 3.1556,3.28531 5.86455,3.2853 1.36406,10e-6 2.5312,-0.28337 3.50144,-0.85014 0.9702,-0.56676 1.76271,-1.39769 2.37752,-2.4928 0.61477,-1.09509 1.06626,-2.44475 1.35447,-4.04899 0.28816,-1.60421 0.43225,-3.44379 0.43228,-5.51873 z"
             style="font-size:59.02017212px;font-weight:bold;font-family:consolas;-inkscape-font-specification:consolas"
             id="path3009" />
          <path
             d="m 425.59079,460.51798 0,-37.6657 7.20461,0 0,31.58501 15.90778,0 0,6.08069 z"
             style="font-size:59.02017212px;font-weight:bold;font-family:consolas;-inkscape-font-specification:consolas"
             id="path3011" />
          <path
             d="m 513.8617,459.04824 c -1.6715,0.67243 -3.29014,1.17195 -4.85591,1.49856 -1.56583,0.32661 -3.19407,0.48991 -4.88473,0.48991 -2.70895,0 -5.10568,-0.39865 -7.1902,-1.19596 -2.08454,-0.79731 -3.84247,-1.98367 -5.27377,-3.55908 -1.43133,-1.5754 -2.51682,-3.53025 -3.25649,-5.86455 -0.73968,-2.33428 -1.10951,-5.04802 -1.10951,-8.14121 0,-3.17001 0.40346,-5.98941 1.21038,-8.45822 0.80691,-2.46875 1.95964,-4.55328 3.45821,-6.2536 1.49855,-1.70025 3.31891,-2.99708 5.46109,-3.89049 2.14216,-0.89333 4.5485,-1.34002 7.21902,-1.34006 0.86454,4e-5 1.67626,0.0193 2.43516,0.0576 0.75887,0.0385 1.50334,0.11051 2.23343,0.21614 0.73004,0.10571 1.46972,0.24499 2.21902,0.41787 0.74925,0.17295 1.52735,0.39389 2.3343,0.66282 l 0,7.0317 c -1.63308,-0.76846 -3.18927,-1.31601 -4.66859,-1.64265 -1.47937,-0.32658 -2.82423,-0.48988 -4.03458,-0.48991 -1.78677,3e-5 -3.31414,0.32183 -4.58214,0.96542 -1.26802,0.64364 -2.31029,1.54661 -3.1268,2.70893 -0.81653,1.16237 -1.41692,2.54565 -1.80115,4.14985 -0.38426,1.60425 -0.57638,3.36698 -0.57637,5.28819 -10e-6,2.03652 0.19692,3.85688 0.59078,5.46109 0.39384,1.60424 1.00383,2.96351 1.82997,4.07781 0.82612,1.11433 1.88279,1.96447 3.17003,2.55044 1.28721,0.58598 2.81458,0.87896 4.58213,0.87896 0.63399,0 1.32082,-0.0624 2.06052,-0.18732 0.73965,-0.12488 1.48893,-0.28818 2.24784,-0.48991 0.75886,-0.20173 1.50814,-0.44188 2.24784,-0.72047 0.73964,-0.27857 1.42648,-0.56195 2.06052,-0.85014 z"
             style="font-size:59.02017212px;font-weight:bold;font-family:consolas;-inkscape-font-specification:consolas"
             id="path3013" />
          <path
             d="m 581.32567,441.52663 c -3e-5,3.4198 -0.39869,6.36889 -1.19597,8.84726 -0.79734,2.47839 -1.89244,4.5149 -3.2853,6.10951 -1.39292,1.59462 -3.02596,2.77618 -4.89914,3.54467 -1.87321,0.76849 -3.87609,1.15274 -6.00864,1.15274 -4.95678,0 -8.68397,-1.64746 -11.18156,-4.94237 -2.4976,-3.2949 -3.7464,-8.08356 -3.74639,-14.36599 -1e-5,-3.41977 0.39865,-6.36885 1.19596,-8.84726 0.79731,-2.47836 1.89241,-4.51486 3.2853,-6.10951 1.39289,-1.59459 3.02593,-2.77614 4.89914,-3.54467 1.87319,-0.76845 3.87606,-1.1527 6.00864,-1.15274 4.95675,4e-5 8.68394,1.64269 11.18156,4.92796 2.49757,3.28533 3.74637,8.07879 3.7464,14.3804 z m -7.4928,0.34582 c -2e-5,-4.45723 -0.5956,-7.78095 -1.78674,-9.97118 -1.19118,-2.19017 -3.15084,-3.28527 -5.87896,-3.2853 -1.36409,3e-5 -2.52643,0.28341 -3.48704,0.85014 -0.96062,0.56679 -1.75313,1.39772 -2.37752,2.4928 -0.62441,1.09512 -1.0807,2.44479 -1.36887,4.04899 -0.2882,1.60425 -0.43229,3.44382 -0.43228,5.51873 -10e-6,4.45727 0.60038,7.78099 1.80115,9.97118 1.20076,2.19021 3.15561,3.28531 5.86456,3.2853 1.36405,10e-6 2.5312,-0.28337 3.50144,-0.85014 0.9702,-0.56676 1.7627,-1.39769 2.37752,-2.4928 0.61477,-1.09509 1.06626,-2.44475 1.35447,-4.04899 0.28816,-1.60421 0.43225,-3.44379 0.43227,-5.51873 z"
             style="font-size:59.02017212px;font-weight:bold;font-family:consolas;-inkscape-font-specification:consolas"
             id="path3015" />
          <path
             d="m 639.85592,460.51798 -0.69164,-21.29683 -0.25937,-8.50144 -1.81556,5.76369 -4.17867,12.82421 -4.43804,0 -3.77522,-12.82421 -1.58501,-5.76369 -0.20173,8.32853 -0.63401,21.46974 -6.02305,0 1.84438,-37.6657 8.01152,0 3.31413,10.69164 1.58501,6.02305 1.58501,-5.67723 3.48704,-11.03746 8.15562,0 1.87319,37.6657 z"
             style="font-size:59.02017212px;font-weight:bold;font-family:consolas;-inkscape-font-specification:consolas"
             id="path3017" />
          <path
             d="m 710.00004,434.84075 c -3e-5,1.95968 -0.32664,3.77043 -0.97983,5.43228 -0.65324,1.66188 -1.62346,3.098 -2.91066,4.30835 -1.28725,1.21039 -2.89147,2.15179 -4.81268,2.82421 -1.92125,0.67244 -4.14987,1.00866 -6.68588,1.00865 l -3.6023,0 0,12.10374 -7.14698,0 0,-37.6657 11.03747,0 c 2.43994,3e-5 4.59652,0.2642 6.46974,0.7925 1.87317,0.52838 3.44858,1.30167 4.72622,2.31989 1.27759,1.01828 2.24781,2.27189 2.91066,3.76081 0.6628,1.48898 0.99421,3.19407 0.99424,5.11527 z m -7.43516,0.48991 c -2e-5,-0.99901 -0.15852,-1.90679 -0.4755,-2.72334 -0.31703,-0.81649 -0.79733,-1.51294 -1.44092,-2.08934 -0.64364,-0.57634 -1.45536,-1.01822 -2.43516,-1.32565 -0.97985,-0.30736 -2.14219,-0.46106 -3.48704,-0.46109 l -3.71757,0 0,13.80403 3.94812,0 c 1.22957,2e-5 2.31507,-0.16809 3.25649,-0.50432 0.94138,-0.3362 1.73389,-0.82131 2.37752,-1.45533 0.64359,-0.63399 1.1335,-1.39287 1.46974,-2.27666 0.33619,-0.88374 0.5043,-1.87317 0.50432,-2.9683 z"
             style="font-size:59.02017212px;font-weight:bold;font-family:consolas;-inkscape-font-specification:consolas"
             id="path3019" />
          <path
             d="m 319.8271,520.43153 c -3e-5,2.40154 -0.32184,4.51009 -0.96542,6.32564 -0.64364,1.81557 -1.56583,3.32854 -2.76657,4.53891 -1.20079,1.21038 -2.66573,2.12296 -4.39481,2.73775 -1.72913,0.61479 -3.66957,0.92219 -5.82133,0.92219 -2.42076,0 -4.49569,-0.3074 -6.22478,-0.92219 -1.72912,-0.61479 -3.13161,-1.49856 -4.2075,-2.6513 -1.07589,-1.15273 -1.85399,-2.55523 -2.33429,-4.20749 -0.48031,-1.65225 -0.72046,-3.50623 -0.72046,-5.56196 l 0,-24.98559 7.08934,0 0,24.55332 c -1e-5,1.26802 0.11046,2.39194 0.33141,3.37175 0.22093,0.97984 0.60518,1.81077 1.15274,2.4928 0.54754,0.68204 1.23437,1.19597 2.06052,1.54179 0.82611,0.34582 1.86357,0.51873 3.11239,0.51873 1.17193,0 2.16136,-0.14889 2.9683,-0.44669 0.80689,-0.29778 1.47932,-0.77809 2.01729,-1.44092 0.53792,-0.66282 0.94138,-1.51296 1.21037,-2.55043 0.26895,-1.03746 0.40344,-2.29586 0.40346,-3.77522 l 0,-24.26513 7.08934,0 z"
             style="font-size:59.02017212px;font-weight:bold;font-family:consolas;-inkscape-font-specification:consolas"
             id="path3021" />
          <path
             d="m 374.75505,502.53527 0,31.75793 -7.26224,0 0,-31.75793 -10.31701,0 0,-5.90778 27.89626,0 0,5.90778 z"
             style="font-size:59.02017212px;font-weight:bold;font-family:consolas;-inkscape-font-specification:consolas"
             id="path3023" />
          <path
             d="m 444.40924,534.2932 -2.07493,-7.43516 -13.14121,0 -2.13257,7.43516 -7.0317,0 11.15274,-37.66571 9.91354,0 11.15274,37.66571 z m -8.55908,-30.74928 -4.95677,17.52161 9.8559,0 z"
             style="font-size:59.02017212px;font-weight:bold;font-family:consolas;-inkscape-font-specification:consolas"
             id="path3025" />
          <path
             d="m 504.78389,502.53527 0,31.75793 -7.26225,0 0,-31.75793 -10.317,0 0,-5.90778 27.89625,0 0,5.90778 z"
             style="font-size:59.02017212px;font-weight:bold;font-family:consolas;-inkscape-font-specification:consolas"
             id="path3027" />
          <path
             d="m 554.26515,502.42 0,-5.79251 23.80403,0 0,5.79251 -8.29971,0 0,26.02305 8.29971,0 0,5.85015 -23.80403,0 0,-5.85015 8.29971,0 0,-26.02305 z"
             style="font-size:59.02017212px;font-weight:bold;font-family:consolas;-inkscape-font-specification:consolas"
             id="path3029" />
          <path
             d="m 646.34007,515.30184 c -3e-5,3.41981 -0.39868,6.36889 -1.19596,8.84727 -0.79734,2.47839 -1.89244,4.51489 -3.28531,6.10951 -1.39291,1.59462 -3.02596,2.77617 -4.89913,3.54466 -1.87322,0.7685 -3.8761,1.15274 -6.00865,1.15274 -4.95678,0 -8.68396,-1.64745 -11.18155,-4.94236 -2.4976,-3.2949 -3.7464,-8.08356 -3.7464,-14.366 0,-3.41976 0.39865,-6.36885 1.19596,-8.84726 0.79731,-2.47835 1.89241,-4.51485 3.28531,-6.10951 1.39288,-1.59458 3.02593,-2.77614 4.89913,-3.54467 1.87319,-0.76845 3.87607,-1.1527 6.00865,-1.15273 4.95675,3e-5 8.68393,1.64268 11.18155,4.92795 2.49757,3.28533 3.74637,8.0788 3.7464,14.3804 z m -7.49279,0.34582 c -3e-5,-4.45722 -0.59561,-7.78095 -1.78675,-9.97118 -1.19118,-2.19017 -3.15083,-3.28527 -5.87896,-3.2853 -1.36409,3e-5 -2.52643,0.28341 -3.48703,0.85014 -0.96063,0.5668 -1.75313,1.39773 -2.37752,2.4928 -0.62441,1.09513 -1.0807,2.44479 -1.36888,4.04899 -0.28819,1.60425 -0.43228,3.44383 -0.43228,5.51873 0,4.45727 0.60038,7.78099 1.80116,9.97118 1.20075,2.19021 3.1556,3.28531 5.86455,3.28531 1.36406,0 2.5312,-0.28338 3.50144,-0.85015 0.9702,-0.56675 1.76271,-1.39768 2.37752,-2.49279 0.61477,-1.09509 1.06626,-2.44476 1.35447,-4.04899 0.28816,-1.60422 0.43225,-3.44379 0.43228,-5.51874 z"
             style="font-size:59.02017212px;font-weight:bold;font-family:consolas;-inkscape-font-specification:consolas"
             id="path3031" />
          <path
             d="m 701.29687,534.2932 -10.08646,-22.47839 -2.07492,-4.8415 0,15.6196 0,11.70029 -6.45533,0 0,-37.66571 8.70317,0 10.28818,22.62248 1.81556,4.40922 0,-16.62824 0,-10.40346 6.45533,0 0,37.66571 z"
             style="font-size:59.02017212px;font-weight:bold;font-family:consolas;-inkscape-font-specification:consolas"
             id="path3033" />
          <path
             d="m 314.38041,608.06841 -2.07493,-7.43516 -13.14121,0 -2.13256,7.43516 -7.0317,0 11.15274,-37.6657 9.91354,0 11.15274,37.6657 z m -8.55908,-30.74928 -4.95677,17.52162 9.85591,0 z"
             style="font-size:59.02017212px;font-weight:bold;font-family:consolas;-inkscape-font-specification:consolas"
             id="path3035" />
          <path
             d="m 360.57638,608.06841 0,-37.6657 7.20461,0 0,31.58501 15.90778,0 0,6.08069 z"
             style="font-size:59.02017212px;font-weight:bold;font-family:consolas;-inkscape-font-specification:consolas"
             id="path3037" />
          <path
             d="m 424.23633,576.19521 0,-5.7925 23.80403,0 0,5.7925 -8.29971,0 0,26.02306 8.29971,0 0,5.85014 -23.80403,0 0,-5.85014 8.29971,0 0,-26.02306 z"
             style="font-size:59.02017212px;font-weight:bold;font-family:consolas;-inkscape-font-specification:consolas"
             id="path3039" />
          <path
             d="m 506.25363,608.06841 -10.08646,-22.47838 -2.07493,-4.8415 0,15.61959 0,11.70029 -6.45533,0 0,-37.6657 8.70317,0 10.28819,22.62248 1.81556,4.40922 0,-16.62824 0,-10.40346 6.45533,0 0,37.6657 z"
             style="font-size:59.02017212px;font-weight:bold;font-family:consolas;-inkscape-font-specification:consolas"
             id="path3041" />
          <path
             d="m 566.34008,592.13181 0,-5.85014 13.40057,0 0,20.08645 c -1.72913,0.80692 -3.53509,1.4025 -5.41786,1.78675 -1.88283,0.38424 -3.92894,0.57637 -6.13833,0.57637 -2.61289,0 -4.96159,-0.40346 -7.04611,-1.21038 -2.08455,-0.80691 -3.85688,-2.00768 -5.317,-3.6023 -1.46014,-1.59462 -2.57926,-3.57348 -3.35735,-5.9366 -0.7781,-2.3631 -1.16715,-5.10085 -1.16715,-8.21326 0,-3.13158 0.40826,-5.93657 1.22478,-8.41498 0.81652,-2.47836 2.00768,-4.5773 3.57349,-6.29683 1.56579,-1.71947 3.48702,-3.03071 5.76369,-3.93372 2.27664,-0.90294 4.8751,-1.35443 7.79539,-1.35447 1.72908,4e-5 3.41496,0.14893 5.05763,0.44669 1.64263,0.29783 3.28048,0.69648 4.91355,1.19596 l 0,7.00288 c -1.42174,-0.6724 -2.99234,-1.22475 -4.71182,-1.65706 -1.71952,-0.43224 -3.45343,-0.64838 -5.20173,-0.64841 -1.76754,3e-5 -3.32854,0.30743 -4.68299,0.92219 -1.35448,0.61482 -2.48801,1.48898 -3.40058,2.62248 -0.91259,1.13355 -1.60424,2.52644 -2.07493,4.17867 -0.47071,1.65228 -0.70606,3.51587 -0.70605,5.59078 -10e-6,1.9981 0.18251,3.79925 0.54755,5.40346 0.36503,1.60424 0.9558,2.96831 1.77234,4.09222 0.81651,1.12392 1.86838,1.98367 3.15562,2.57925 1.2872,0.59558 2.853,0.89338 4.6974,0.89337 0.44187,1e-5 0.82611,-0.0144 1.15274,-0.0432 0.32659,-0.0288 0.63398,-0.072 0.92219,-0.12968 0.28816,-0.0576 0.56194,-0.12488 0.82133,-0.20173 0.25934,-0.0768 0.53311,-0.1633 0.82132,-0.25937 l 0,-9.62536 z"
             style="font-size:59.02017212px;font-weight:bold;font-family:consolas;-inkscape-font-specification:consolas"
             id="path3043" />
          <path
             d="m 644.89915,594.20674 c -3e-5,2.40155 -0.32184,4.5101 -0.96542,6.32565 -0.64364,1.81557 -1.56583,3.32853 -2.76657,4.5389 -1.20079,1.21038 -2.66573,2.12296 -4.39481,2.73776 -1.72913,0.61479 -3.66957,0.92219 -5.82133,0.92219 -2.42076,0 -4.49569,-0.3074 -6.22478,-0.92219 -1.72912,-0.6148 -3.13161,-1.49856 -4.20749,-2.6513 -1.0759,-1.15273 -1.85399,-2.55523 -2.3343,-4.20749 -0.48031,-1.65225 -0.72046,-3.50624 -0.72046,-5.56196 l 0,-24.98559 7.08934,0 0,24.55331 c -10e-6,1.26802 0.11046,2.39194 0.33141,3.37176 0.22093,0.97983 0.60518,1.81077 1.15274,2.49279 0.54754,0.68205 1.23438,1.19598 2.06052,1.54179 0.82611,0.34583 1.86357,0.51874 3.11239,0.51873 1.17193,10e-6 2.16136,-0.14889 2.9683,-0.44668 0.8069,-0.29779 1.47932,-0.77809 2.01729,-1.44093 0.53792,-0.66281 0.94138,-1.51295 1.21037,-2.55043 0.26895,-1.03745 0.40344,-2.29585 0.40346,-3.77521 l 0,-24.26513 7.08934,0 z"
             style="font-size:59.02017212px;font-weight:bold;font-family:consolas;-inkscape-font-specification:consolas"
             id="path3045" />
          <path
             d="m 684.29399,576.19521 0,-5.7925 23.80403,0 0,5.7925 -8.29971,0 0,26.02306 8.29971,0 0,5.85014 -23.80403,0 0,-5.85014 8.29971,0 0,-26.02306 z"
             style="font-size:59.02017212px;font-weight:bold;font-family:consolas;-inkscape-font-specification:consolas"
             id="path3047" />
          <path
             d="m 319.27955,670.46034 c -3e-5,2.05573 -0.37947,3.84247 -1.13833,5.36023 -0.75891,1.51778 -1.82039,2.77138 -3.18444,3.76081 -1.3641,0.98943 -2.98753,1.7243 -4.87032,2.20461 -1.88282,0.48031 -3.93853,0.72046 -6.16714,0.72046 -1.97888,0 -3.8905,-0.11527 -5.73487,-0.34582 -1.84439,-0.23055 -3.66956,-0.61479 -5.47551,-1.15274 l 0,-7.00288 c 0.88376,0.30741 1.80595,0.59559 2.76657,0.86455 0.96061,0.26898 1.92603,0.50433 2.89626,0.70606 0.97021,0.20173 1.93563,0.36023 2.89625,0.4755 0.9606,0.11528 1.8924,0.17292 2.79539,0.17291 1.34484,10e-6 2.48797,-0.11527 3.42939,-0.34582 0.94139,-0.23054 1.70988,-0.54754 2.30548,-0.95101 0.59556,-0.40345 1.02784,-0.88376 1.29683,-1.44092 0.26895,-0.55715 0.40344,-1.17194 0.40346,-1.84438 -2e-5,-0.92218 -0.26419,-1.69547 -0.79251,-2.31989 -0.52836,-0.62438 -1.2248,-1.17674 -2.08934,-1.65706 -0.86457,-0.48029 -1.8492,-0.91257 -2.95389,-1.29683 -1.10472,-0.38423 -2.22864,-0.79729 -3.37176,-1.23919 -1.14314,-0.44186 -2.26706,-0.94138 -3.37175,-1.49856 -1.10472,-0.55714 -2.08935,-1.24878 -2.95389,-2.07493 -0.86456,-0.8261 -1.56101,-1.81073 -2.08934,-2.95389 -0.52834,-1.1431 -0.79251,-2.52158 -0.79251,-4.13544 0,-1.47932 0.26897,-2.88182 0.80692,-4.2075 0.53794,-1.32561 1.38328,-2.48315 2.53602,-3.47262 1.15273,-0.9894 2.63208,-1.7771 4.43804,-2.36311 1.80595,-0.58594 3.98654,-0.87893 6.54179,-0.87896 0.74926,3e-5 1.53216,0.0337 2.3487,0.10086 0.8165,0.0673 1.62342,0.15374 2.42075,0.25937 0.79729,0.1057 1.56578,0.23058 2.30548,0.37464 0.73964,0.14413 1.41688,0.29302 2.0317,0.44668 l 0,6.48415 c -0.61482,-0.23051 -1.28725,-0.44185 -2.01729,-0.634 -0.7301,-0.19209 -1.48418,-0.3602 -2.26225,-0.50433 -0.77812,-0.14406 -1.56102,-0.25453 -2.34871,-0.33141 -0.78772,-0.0768 -1.537,-0.11524 -2.24783,-0.11527 -1.24882,3e-5 -2.30549,0.10089 -3.17003,0.30259 -0.86457,0.20176 -1.57542,0.48034 -2.13257,0.83574 -0.55717,0.35545 -0.96062,0.79253 -1.21037,1.31124 -0.24977,0.51876 -0.37465,1.09513 -0.37464,1.7291 -10e-6,0.78773 0.26416,1.46497 0.79251,2.0317 0.52832,0.56679 1.22957,1.07592 2.10374,1.52738 0.87415,0.45151 1.86358,0.87418 2.9683,1.26801 1.10469,0.39388 2.23821,0.81655 3.40058,1.26801 1.16232,0.45151 2.29584,0.96544 3.40057,1.54179 1.10469,0.57639 2.09412,1.27764 2.9683,2.10375 0.87414,0.82614 1.57538,1.80117 2.10375,2.92507 0.52831,1.12393 0.79248,2.45438 0.79251,3.99135 z"
             style="font-size:59.02017212px;font-weight:bold;font-family:consolas;-inkscape-font-specification:consolas"
             id="path3049" />
          <path
             d="m 374.75505,650.0857 0,31.75793 -7.26224,0 0,-31.75793 -10.31701,0 0,-5.90778 27.89626,0 0,5.90778 z"
             style="font-size:59.02017212px;font-weight:bold;font-family:consolas;-inkscape-font-specification:consolas"
             id="path3051" />
          <path
             d="m 424.23633,649.97043 0,-5.79251 23.80403,0 0,5.79251 -8.29971,0 0,26.02305 8.29971,0 0,5.85015 -23.80403,0 0,-5.85015 8.29971,0 0,-26.02305 z"
             style="font-size:59.02017212px;font-weight:bold;font-family:consolas;-inkscape-font-specification:consolas"
             id="path3053" />
          <path
             d="m 513.8617,680.37389 c -1.6715,0.67243 -3.29014,1.17195 -4.85591,1.49856 -1.56583,0.32661 -3.19407,0.48991 -4.88473,0.48991 -2.70895,0 -5.10568,-0.39866 -7.1902,-1.19597 -2.08454,-0.7973 -3.84247,-1.98366 -5.27377,-3.55907 -1.43133,-1.57541 -2.51682,-3.53025 -3.25649,-5.86456 -0.73968,-2.33428 -1.10951,-5.04801 -1.10951,-8.14121 0,-3.17 0.40346,-5.98941 1.21038,-8.45821 0.80691,-2.46875 1.95964,-4.55328 3.45821,-6.2536 1.49855,-1.70026 3.31891,-2.99708 5.46109,-3.89049 2.14216,-0.89334 4.5485,-1.34002 7.21902,-1.34006 0.86454,4e-5 1.67626,0.0193 2.43516,0.0576 0.75887,0.0385 1.50334,0.11051 2.23343,0.21614 0.73004,0.1057 1.46972,0.24499 2.21902,0.41786 0.74925,0.17295 1.52735,0.39389 2.3343,0.66283 l 0,7.0317 c -1.63308,-0.76846 -3.18927,-1.31601 -4.66859,-1.64265 -1.47937,-0.32658 -2.82423,-0.48989 -4.03458,-0.48992 -1.78677,3e-5 -3.31414,0.32184 -4.58214,0.96542 -1.26802,0.64364 -2.31029,1.54662 -3.1268,2.70893 -0.81653,1.16238 -1.41692,2.54566 -1.80115,4.14986 -0.38426,1.60425 -0.57638,3.36698 -0.57637,5.28818 -10e-6,2.03652 0.19692,3.85689 0.59078,5.4611 0.39384,1.60424 1.00383,2.96351 1.82997,4.07781 0.82612,1.11432 1.88279,1.96446 3.17003,2.55043 1.28721,0.58598 2.81458,0.87897 4.58213,0.87896 0.63399,10e-6 1.32082,-0.0624 2.06052,-0.18732 0.73965,-0.12487 1.48893,-0.28817 2.24784,-0.48991 0.75886,-0.20172 1.50814,-0.44188 2.24784,-0.72046 0.73964,-0.27857 1.42648,-0.56195 2.06052,-0.85014 z"
             style="font-size:59.02017212px;font-weight:bold;font-family:consolas;-inkscape-font-specification:consolas"
             id="path3055" />
          <path
             d="m 579.3372,670.46034 c -3e-5,2.05573 -0.37948,3.84247 -1.13833,5.36023 -0.75892,1.51778 -1.82039,2.77138 -3.18444,3.76081 -1.3641,0.98943 -2.98754,1.7243 -4.87032,2.20461 -1.88282,0.48031 -3.93854,0.72046 -6.16715,0.72046 -1.97887,0 -3.8905,-0.11527 -5.73487,-0.34582 -1.84438,-0.23055 -3.66955,-0.61479 -5.4755,-1.15274 l 0,-7.00288 c 0.88376,0.30741 1.80595,0.59559 2.76657,0.86455 0.96061,0.26898 1.92603,0.50433 2.89625,0.70606 0.97022,0.20173 1.93563,0.36023 2.89626,0.4755 0.9606,0.11528 1.8924,0.17292 2.79539,0.17291 1.34484,10e-6 2.48797,-0.11527 3.42939,-0.34582 0.94139,-0.23054 1.70988,-0.54754 2.30548,-0.95101 0.59556,-0.40345 1.02783,-0.88376 1.29683,-1.44092 0.26895,-0.55715 0.40343,-1.17194 0.40346,-1.84438 -3e-5,-0.92218 -0.2642,-1.69547 -0.79251,-2.31989 -0.52836,-0.62438 -1.22481,-1.17674 -2.08934,-1.65706 -0.86457,-0.48029 -1.8492,-0.91257 -2.95389,-1.29683 -1.10472,-0.38423 -2.22864,-0.79729 -3.37176,-1.23919 -1.14314,-0.44186 -2.26706,-0.94138 -3.37176,-1.49856 -1.10471,-0.55714 -2.08934,-1.24878 -2.95389,-2.07493 -0.86455,-0.8261 -1.561,-1.81073 -2.08933,-2.95389 -0.52834,-1.1431 -0.79251,-2.52158 -0.79251,-4.13544 0,-1.47932 0.26897,-2.88182 0.80692,-4.2075 0.53794,-1.32561 1.38328,-2.48315 2.53602,-3.47262 1.15273,-0.9894 2.63207,-1.7771 4.43804,-2.36311 1.80594,-0.58594 3.98654,-0.87893 6.54179,-0.87896 0.74926,3e-5 1.53216,0.0337 2.3487,0.10086 0.8165,0.0673 1.62342,0.15374 2.42075,0.25937 0.79729,0.1057 1.56578,0.23058 2.30547,0.37464 0.73965,0.14413 1.41689,0.29302 2.0317,0.44668 l 0,6.48415 c -0.61481,-0.23051 -1.28724,-0.44185 -2.01729,-0.634 -0.73009,-0.19209 -1.48417,-0.3602 -2.26224,-0.50433 -0.77812,-0.14406 -1.56102,-0.25453 -2.34871,-0.33141 -0.78772,-0.0768 -1.537,-0.11524 -2.24784,-0.11527 -1.24881,3e-5 -2.30549,0.10089 -3.17002,0.30259 -0.86457,0.20176 -1.57543,0.48034 -2.13257,0.83574 -0.55717,0.35545 -0.96063,0.79253 -1.21037,1.31124 -0.24978,0.51876 -0.37465,1.09513 -0.37464,1.7291 -1e-5,0.78773 0.26415,1.46497 0.7925,2.0317 0.52833,0.56679 1.22958,1.07592 2.10375,1.52738 0.87414,0.45151 1.86358,0.87418 2.9683,1.26801 1.10469,0.39388 2.23821,0.81655 3.40058,1.26801 1.16232,0.45151 2.29584,0.96544 3.40057,1.54179 1.10468,0.57639 2.09412,1.27764 2.9683,2.10375 0.87413,0.82614 1.57538,1.80117 2.10375,2.92507 0.52831,1.12393 0.79248,2.45438 0.79251,3.99135 z"
             style="font-size:59.02017212px;font-weight:bold;font-family:consolas;-inkscape-font-specification:consolas"
             id="path3057" />
          <path
             d="m 643.8905,680.37389 c -1.67149,0.67243 -3.29013,1.17195 -4.8559,1.49856 -1.56583,0.32661 -3.19407,0.48991 -4.88473,0.48991 -2.70895,0 -5.10568,-0.39866 -7.1902,-1.19597 -2.08455,-0.7973 -3.84247,-1.98366 -5.27378,-3.55907 -1.43132,-1.57541 -2.51681,-3.53025 -3.25648,-5.86456 -0.73968,-2.33428 -1.10951,-5.04801 -1.10951,-8.14121 0,-3.17 0.40345,-5.98941 1.21037,-8.45821 0.80692,-2.46875 1.95965,-4.55328 3.45822,-6.2536 1.49855,-1.70026 3.31891,-2.99708 5.46109,-3.89049 2.14216,-0.89334 4.5485,-1.34002 7.21902,-1.34006 0.86454,4e-5 1.67625,0.0193 2.43516,0.0576 0.75886,0.0385 1.50334,0.11051 2.23343,0.21614 0.73004,0.1057 1.46972,0.24499 2.21902,0.41786 0.74925,0.17295 1.52735,0.39389 2.33429,0.66283 l 0,7.0317 c -1.63307,-0.76846 -3.18926,-1.31601 -4.66858,-1.64265 -1.47937,-0.32658 -2.82423,-0.48989 -4.03459,-0.48992 -1.78676,3e-5 -3.31413,0.32184 -4.58213,0.96542 -1.26802,0.64364 -2.31029,1.54662 -3.1268,2.70893 -0.81653,1.16238 -1.41692,2.54566 -1.80115,4.14986 -0.38426,1.60425 -0.57638,3.36698 -0.57637,5.28818 -10e-6,2.03652 0.19691,3.85689 0.59078,5.4611 0.39384,1.60424 1.00383,2.96351 1.82997,4.07781 0.82611,1.11432 1.88279,1.96446 3.17003,2.55043 1.2872,0.58598 2.81458,0.87897 4.58213,0.87896 0.63398,10e-6 1.32082,-0.0624 2.06052,-0.18732 0.73965,-0.12487 1.48893,-0.28817 2.24784,-0.48991 0.75886,-0.20172 1.50814,-0.44188 2.24784,-0.72046 0.73964,-0.27857 1.42648,-0.56195 2.06051,-0.85014 z"
             style="font-size:59.02017212px;font-weight:bold;font-family:consolas;-inkscape-font-specification:consolas"
             id="path3059" />
          <path
             d="m 702.5937,681.84363 0,-16.3977 -12.79539,0 0,16.3977 -7.08934,0 0,-37.66571 7.08934,0 0,15.12969 12.79539,0 0,-15.12969 7.08934,0 0,37.66571 z"
             style="font-size:59.02017212px;font-weight:bold;font-family:consolas;-inkscape-font-specification:consolas"
             id="path3061" />
          <path
             d="m 314.38041,755.61884 -2.07493,-7.43516 -13.14121,0 -2.13256,7.43516 -7.0317,0 11.15274,-37.6657 9.91354,0 11.15274,37.6657 z m -8.55908,-30.74928 -4.95677,17.52162 9.85591,0 z"
             style="font-size:59.02017212px;font-weight:bold;font-family:consolas;-inkscape-font-specification:consolas"
             id="path3063" />
          <path
             d="m 360.57638,755.61884 0,-37.6657 7.20461,0 0,31.58501 15.90778,0 0,6.08069 z"
             style="font-size:59.02017212px;font-weight:bold;font-family:consolas;-inkscape-font-specification:consolas"
             id="path3065" />
          <path
             d="m 425.59079,755.61884 0,-37.6657 7.20461,0 0,31.58501 15.90778,0 0,6.08069 z"
             style="font-size:59.02017212px;font-weight:bold;font-family:consolas;-inkscape-font-specification:consolas"
             id="path3067" />
          <path
             d="m 490.23057,755.61884 0,-37.6657 22.68012,0 0,5.99423 -15.47551,0 0,9.366 14.75505,0 0,5.85014 -14.75505,0 0,10.4611 15.47551,0 0,5.99423 z"
             style="font-size:59.02017212px;font-weight:bold;font-family:consolas;-inkscape-font-specification:consolas"
             id="path3069" />
          <path
             d="m 571.26803,755.61884 -10.08645,-22.47838 -2.07493,-4.8415 0,15.6196 0,11.70028 -6.45533,0 0,-37.6657 8.70317,0 10.28818,22.62248 1.81556,4.40922 0,-16.62824 0,-10.40346 6.45533,0 0,37.6657 z"
             style="font-size:59.02017212px;font-weight:bold;font-family:consolas;-inkscape-font-specification:consolas"
             id="path3071" />
          <path
             d="m 631.35448,739.68224 0,-5.85014 13.40058,0 0,20.08645 c -1.72914,0.80692 -3.53509,1.4025 -5.41787,1.78675 -1.88283,0.38424 -3.92893,0.57637 -6.13833,0.57637 -2.61289,0 -4.96159,-0.40346 -7.04611,-1.21038 -2.08454,-0.80691 -3.85687,-2.00768 -5.317,-3.6023 -1.46014,-1.59462 -2.57925,-3.57348 -3.35735,-5.9366 -0.7781,-2.3631 -1.16715,-5.10085 -1.16715,-8.21326 0,-3.13158 0.40826,-5.93657 1.22479,-8.41498 0.81652,-2.47836 2.00768,-4.5773 3.57348,-6.29683 1.5658,-1.71947 3.48703,-3.03071 5.76369,-3.93372 2.27665,-0.90294 4.87511,-1.35443 7.79539,-1.35447 1.72909,4e-5 3.41496,0.14894 5.05764,0.44669 1.64262,0.29783 3.28047,0.69648 4.91354,1.19596 l 0,7.00288 c -1.42173,-0.6724 -2.99234,-1.22475 -4.71181,-1.65706 -1.71953,-0.43224 -3.45343,-0.64838 -5.20173,-0.64841 -1.76755,3e-5 -3.32855,0.30743 -4.683,0.92219 -1.35448,0.61482 -2.488,1.48898 -3.40057,2.62248 -0.9126,1.13355 -1.60424,2.52644 -2.07493,4.17867 -0.47071,1.65228 -0.70606,3.51587 -0.70605,5.59078 -10e-6,1.9981 0.1825,3.79925 0.54755,5.40346 0.36502,1.60424 0.9558,2.96831 1.77233,4.09222 0.81651,1.12392 1.86838,1.98367 3.15562,2.57925 1.28721,0.59559 2.85301,0.89338 4.69741,0.89337 0.44186,10e-6 0.82611,-0.0144 1.15273,-0.0432 0.32659,-0.0288 0.63399,-0.072 0.92219,-0.12968 0.28817,-0.0576 0.56194,-0.12487 0.82133,-0.20173 0.25934,-0.0768 0.53312,-0.1633 0.82133,-0.25937 l 0,-9.62536 z"
             style="font-size:59.02017212px;font-weight:bold;font-family:consolas;-inkscape-font-specification:consolas"
             id="path3073" />
          <path
             d="m 685.27382,755.61884 0,-37.6657 22.68011,0 0,5.99423 -15.4755,0 0,9.366 14.75504,0 0,5.85014 -14.75504,0 0,10.4611 15.4755,0 0,5.99423 z"
             style="font-size:59.02017212px;font-weight:bold;font-family:consolas;-inkscape-font-specification:consolas"
             id="path3075" />
        </g>
      </g>
    </g>
  </g>
</svg>
